<?xml version="1.0" standalone="no"?>
<!DOCTYPE svg PUBLIC "-//W3C//DTD SVG 1.1//EN" "http://www.w3.org/Graphics/SVG/1.1/DTD/svg11.dtd" >
<svg xmlns="http://www.w3.org/2000/svg" xmlns:xlink="http://www.w3.org/1999/xlink" version="1.1">
<metadata>
Created by FontForge 20161003 at Tue Feb 19 16:41:59 2019
 By www-data
Copyright (c) Joshua Darden &#38; Phil's Fonts, Inc, 2004. All rights reserved.
</metadata>
<defs>
<font id="Freight-SansMedium" horiz-adv-x="394" >
  <font-face 
    font-family="Freight"
    font-weight="500"
    font-stretch="normal"
    units-per-em="1000"
    panose-1="2 0 6 6 3 0 0 2 0 4"
    ascent="800"
    descent="-200"
    x-height="458"
    cap-height="625"
    bbox="-54 -261 1106 874"
    underline-thickness="20"
    underline-position="-133"
    unicode-range="U+0020-FB04"
  />
<missing-glyph horiz-adv-x="500" 
 />
    <glyph glyph-name=".notdef" horiz-adv-x="500" 
 />
    <glyph glyph-name="space" unicode=" " horiz-adv-x="154" 
 />
    <glyph glyph-name="exclam" unicode="!" horiz-adv-x="275" 
d="M89 652h99l-25 -458h-48zM202 50c0 -35 -26 -65 -63 -65c-39 0 -66 30 -66 65s27 63 66 63c37 0 63 -28 63 -63z" />
    <glyph glyph-name="quotedbl" unicode="&#x22;" horiz-adv-x="304" 
d="M145 398l115 247l75 -36l-156 -211h-34zM-5 398l115 247l75 -36l-156 -211h-34z" />
    <glyph glyph-name="numbersign" unicode="#" horiz-adv-x="560" 
d="M38 364v58h139l59 220h60l-59 -220h160l59 220h60l-59 -220h89v-58h-105l-39 -146h124v-58h-139l-63 -234h-60l63 234h-160l-63 -234h-60l63 234h-89v58h104l40 146h-124zM221 364l-39 -146h160l40 146h-161z" />
    <glyph glyph-name="dollar" unicode="$" horiz-adv-x="505" 
d="M231 61h10c80 0 136 42 136 105c0 57 -37 82 -118 106zM278 730h48l-13 -95c48 -8 93 -23 134 -50l-30 -74c-33 23 -74 39 -114 47l-27 -200c91 -24 183 -68 183 -186c0 -108 -89 -187 -220 -187h-19c1 0 -3 -27 -7 -54c-3 -16 -5 -34 -7 -54h-48l15 114
c-53 8 -100 26 -142 53l28 77c39 -25 77 -44 124 -55l30 219c-85 24 -172 64 -172 179c0 105 84 176 208 176h17zM256 563h-6c-91 0 -126 -41 -126 -93s35 -78 106 -99z" />
    <glyph glyph-name="percent" unicode="%" horiz-adv-x="740" 
d="M346 482c0 -88 -63 -165 -166 -165c-102 0 -166 77 -166 165c0 91 64 167 166 167c103 0 166 -76 166 -167zM153 -15h-63l498 654h63zM726 142c0 -91 -64 -167 -166 -167c-103 0 -166 76 -166 167c0 88 63 165 166 165c102 0 166 -77 166 -165zM292 482
c0 64 -41 115 -112 115s-112 -51 -112 -115c0 -60 42 -113 112 -113s112 53 112 113zM672 142c0 60 -42 113 -112 113s-112 -53 -112 -113c0 -64 41 -115 112 -115s112 51 112 115z" />
    <glyph glyph-name="ampersand" unicode="&#x26;" horiz-adv-x="622" 
d="M258 364c53 23 90 59 90 115c0 52 -37 90 -97 90s-95 -41 -95 -86c0 -57 34 -90 102 -119zM396 170c-56 64 -115 115 -172 135c-68 -32 -117 -77 -117 -137s41 -111 117 -111c65 0 124 44 172 113zM432 126c-60 -85 -131 -141 -219 -141c-121 0 -190 80 -190 176
c0 84 68 145 152 169c-69 37 -103 86 -103 147c0 80 67 162 186 162c112 0 171 -74 171 -153c0 -68 -51 -119 -119 -147c37 -19 89 -64 130 -111l96 150h96l-153 -195l152 -183l-89 -15z" />
    <glyph glyph-name="quoteright" unicode="&#x2019;" horiz-adv-x="220" 
d="M41 608c4 32 25 59 68 59c41 0 85 -39 85 -91c0 -82 -73 -147 -148 -195l-35 34c68 49 102 92 102 127c0 25 -17 41 -72 66z" />
    <glyph glyph-name="parenleft" unicode="(" horiz-adv-x="364" 
d="M347 -257c-119 58 -280 227 -280 476c0 248 162 418 279 477l36 -52c-108 -59 -243 -214 -243 -425c0 -210 135 -365 243 -424z" />
    <glyph glyph-name="parenright" unicode=")" horiz-adv-x="364" 
d="M-18 -205c109 59 243 214 243 424c0 211 -134 366 -243 425l36 52c118 -59 279 -229 279 -477c0 -249 -161 -418 -280 -476z" />
    <glyph glyph-name="asterisk" unicode="*" horiz-adv-x="343" 
d="M65 343l-55 70l141 61v5l-137 63l50 71l102 -116l4 1l19 150l81 -26l-78 -132l3 -3l144 29v-84l-144 30l-3 -3l75 -133l-81 -24l-17 151l-3 1z" />
    <glyph glyph-name="plus" unicode="+" horiz-adv-x="484" 
d="M279 199v-170h-70v170h-169l3 71h166v169h70v-169h164l3 -71h-167z" />
    <glyph glyph-name="comma" unicode="," horiz-adv-x="220" 
d="M41 63c4 32 25 59 68 59c41 0 85 -39 85 -92c0 -82 -74 -145 -148 -195l-35 35c68 49 102 92 102 127c0 25 -17 41 -72 66z" />
    <glyph glyph-name="hyphen" unicode="-" horiz-adv-x="310" 
d="M33 204v77h246v-77h-246z" />
    <glyph glyph-name="period" unicode="." horiz-adv-x="220" 
d="M175 50c0 -35 -26 -65 -63 -65c-39 0 -65 30 -65 65s26 63 65 63c37 0 63 -28 63 -63z" />
    <glyph glyph-name="slash" unicode="/" horiz-adv-x="217" 
d="M8 -199h-60l243 901h60z" />
    <glyph glyph-name="zero" unicode="0" horiz-adv-x="577" 
d="M530 236c0 -148 -101 -251 -242 -251c-142 0 -241 103 -241 251s99 251 241 251c141 0 242 -103 242 -251zM448 236c0 100 -64 173 -160 173c-95 0 -159 -73 -159 -173s64 -173 159 -173c96 0 160 73 160 173z" />
    <glyph glyph-name="one" unicode="1" horiz-adv-x="343" 
d="M161 384l-116 -37l-3 75l200 66v-488h-81v384z" />
    <glyph glyph-name="two" unicode="2" horiz-adv-x="457" 
d="M46 0v71c140 103 267 182 267 260c0 47 -35 79 -95 79c-51 0 -95 -22 -142 -57l-29 70c47 37 105 64 180 64c102 0 173 -58 173 -146c0 -109 -98 -169 -229 -263h251v-78h-376z" />
    <glyph glyph-name="three" unicode="3" horiz-adv-x="437" 
d="M270 170c99 -16 147 -87 147 -158c0 -125 -102 -199 -230 -199c-61 0 -128 13 -169 38l15 77c37 -25 92 -40 155 -40c84 0 143 39 143 118c0 69 -56 102 -136 105c-28 1 -57 -1 -92 -8v71c103 24 202 66 202 143c0 60 -41 93 -113 93c-51 0 -97 -23 -144 -58l-29 70
c47 37 107 65 182 65c123 0 194 -67 194 -158c0 -75 -59 -132 -125 -159z" />
    <glyph glyph-name="four" unicode="4" horiz-adv-x="523" 
d="M414 10v-194h-80v194h-308l-8 48l323 430h73v-400h95l3 -78h-98zM334 360l-201 -272h201v272z" />
    <glyph glyph-name="five" unicode="5" horiz-adv-x="429" 
d="M126 215c20 3 38 5 71 5c132 0 215 -77 215 -192c0 -129 -100 -215 -220 -215c-67 0 -133 19 -174 43l15 81c39 -21 100 -46 160 -46c79 0 135 52 135 133c0 67 -49 125 -141 125c-59 0 -86 -6 -123 -17l-22 20l41 321h312l3 -81h-248z" />
    <glyph glyph-name="six" unicode="6" horiz-adv-x="516" 
d="M43 245c0 173 114 340 343 393l25 -78c-145 -36 -246 -110 -279 -234l2 -1c41 39 87 62 159 62c100 0 183 -78 183 -194c0 -117 -82 -208 -213 -208c-141 0 -220 118 -220 260zM130 219c0 -84 52 -158 137 -158c77 0 126 52 126 128s-50 125 -122 125
c-57 0 -109 -28 -136 -53c-3 -12 -5 -26 -5 -42z" />
    <glyph glyph-name="seven" unicode="7" horiz-adv-x="456" 
d="M17 392l3 81h415v-71l-282 -586h-84l277 576h-329z" />
    <glyph glyph-name="eight" unicode="8" horiz-adv-x="507" 
d="M286 338c51 21 84 60 84 113c0 67 -50 105 -114 105c-77 0 -119 -43 -119 -95c0 -61 72 -91 149 -123zM226 282c-60 -20 -99 -62 -99 -119c0 -64 54 -105 130 -105c80 0 122 34 122 94c0 67 -76 98 -153 130zM348 310c63 -31 115 -74 115 -148c0 -95 -73 -177 -210 -177
c-140 0 -209 78 -209 169c0 80 68 142 120 155c-59 32 -110 70 -110 143c0 101 77 177 206 177c133 0 193 -81 193 -169c0 -75 -55 -129 -105 -150z" />
    <glyph glyph-name="nine" unicode="9" horiz-adv-x="516" 
d="M473 227c0 -173 -113 -339 -343 -393l-25 78c145 36 246 110 279 234l-2 1c-41 -39 -87 -62 -159 -62c-100 0 -183 78 -183 194c0 117 83 208 213 208c141 0 220 -118 220 -260zM386 253c0 84 -52 158 -137 158c-77 0 -126 -52 -126 -128s50 -125 122 -125
c57 0 109 28 136 53c3 12 5 26 5 42z" />
    <glyph glyph-name="colon" unicode=":" horiz-adv-x="220" 
d="M175 358c0 -35 -26 -65 -63 -65c-39 0 -65 30 -65 65s26 63 65 63c37 0 63 -28 63 -63zM175 50c0 -35 -26 -65 -63 -65c-39 0 -65 30 -65 65s26 63 65 63c37 0 63 -28 63 -63z" />
    <glyph glyph-name="semicolon" unicode=";" horiz-adv-x="220" 
d="M175 358c0 -35 -26 -65 -63 -65c-39 0 -65 30 -65 65s26 63 65 63c37 0 63 -28 63 -63zM41 63c4 32 25 59 68 59c41 0 85 -39 85 -92c0 -82 -74 -145 -148 -195l-35 35c68 49 102 92 102 127c0 25 -17 41 -72 66z" />
    <glyph glyph-name="less" unicode="&#x3c;" horiz-adv-x="474" 
d="M435 17l-402 189v59l401 189v-79l-297 -135v-10l298 -134v-79z" />
    <glyph glyph-name="equal" unicode="=" horiz-adv-x="464" 
d="M39 290l-5 71h398l-5 -71h-388zM34 108l5 71h388l5 -71h-398z" />
    <glyph glyph-name="greater" unicode="&#x3e;" horiz-adv-x="474" 
d="M29 17v79l298 134v10l-297 135v79l401 -189v-59z" />
    <glyph glyph-name="question" unicode="?" horiz-adv-x="356" 
d="M317 478c0 -88 -55 -114 -105 -132c-43 -16 -77 -28 -77 -64c0 -31 27 -58 55 -85l-39 -12c-37 21 -78 62 -78 113c0 67 51 90 100 109c43 16 81 30 81 70c0 45 -44 84 -133 84c-27 0 -51 -5 -70 -8v77c19 5 41 9 76 9c111 0 190 -75 190 -161zM215 50
c0 -35 -25 -65 -64 -65c-37 0 -65 30 -65 65s28 63 65 63c39 0 64 -28 64 -63z" />
    <glyph glyph-name="at" unicode="@" horiz-adv-x="828" 
d="M547 206c-13 -68 5 -107 61 -107c77 0 143 72 143 207c0 179 -159 293 -324 293c-193 0 -346 -165 -346 -356c0 -181 131 -329 317 -329c43 0 83 8 123 20l11 -37c-47 -15 -87 -23 -136 -23c-209 0 -359 162 -359 368c0 216 170 396 390 396c196 0 368 -128 368 -332
c0 -169 -96 -262 -198 -262c-55 0 -96 26 -115 73c-35 -40 -77 -59 -118 -59c-85 0 -145 72 -145 164c0 124 93 227 212 227c32 0 68 -11 95 -23l69 23zM511 354c-20 21 -52 37 -88 37c-81 0 -135 -82 -135 -161c0 -69 42 -113 97 -113c35 0 59 14 86 37z" />
    <glyph glyph-name="A" unicode="A" horiz-adv-x="574" 
d="M569 0h-87l-59 164h-271l-59 -164h-88l235 625h97zM288 537l-108 -296h215z" />
    <glyph glyph-name="B" unicode="B" horiz-adv-x="566" 
d="M397 322c84 -21 127 -74 127 -145c0 -106 -71 -177 -232 -177h-213v625h207c151 0 218 -67 218 -166c0 -65 -36 -110 -107 -137zM419 452c0 60 -43 95 -126 95h-129v-196h116c91 0 139 40 139 101zM439 176c0 72 -64 98 -152 98h-123v-196h136c93 0 139 33 139 98z" />
    <glyph glyph-name="C" unicode="C" horiz-adv-x="601" 
d="M530 511c-56 36 -106 53 -171 53c-136 0 -227 -94 -227 -249s92 -254 229 -254c68 0 133 26 177 61l14 -85c-51 -32 -122 -52 -193 -52c-184 0 -313 127 -313 326s132 329 313 329c72 0 147 -20 198 -52z" />
    <glyph glyph-name="D" unicode="D" horiz-adv-x="644" 
d="M598 317c0 -193 -120 -317 -335 -317h-184v625h188c207 0 331 -122 331 -308zM513 311c0 155 -91 235 -250 235h-99v-467h103c149 0 246 79 246 232z" />
    <glyph glyph-name="E" unicode="E" horiz-adv-x="523" 
d="M79 0v625h396v-79h-311v-193h259v-79h-259v-195h311v-79h-396z" />
    <glyph glyph-name="F" unicode="F" horiz-adv-x="495" 
d="M79 625h386v-80h-301v-203h249v-79h-249v-263h-85v625z" />
    <glyph glyph-name="G" unicode="G" horiz-adv-x="640" 
d="M579 45c-65 -40 -152 -60 -220 -60c-184 0 -313 127 -313 326s132 329 313 329c73 0 156 -21 208 -54l-28 -78c-51 32 -116 56 -180 56c-136 0 -227 -94 -227 -249s92 -254 229 -254c52 0 99 13 136 32v148h-175v79h257v-275z" />
    <glyph glyph-name="H" unicode="H" horiz-adv-x="670" 
d="M507 0v276h-343v-276h-85v625h85v-272h343v272h84v-625h-84z" />
    <glyph glyph-name="I" unicode="I" horiz-adv-x="247" 
d="M81 0v625h84v-625h-84z" />
    <glyph glyph-name="J" unicode="J" horiz-adv-x="418" 
d="M340 190c0 -122 -57 -205 -188 -205c-55 0 -105 18 -138 39l13 82c39 -27 77 -44 124 -44c72 0 105 44 105 132v431h84v-435z" />
    <glyph glyph-name="K" unicode="K" horiz-adv-x="548" 
d="M165 327l265 298h107l-289 -309l292 -316h-109l-266 297h-1v-297h-85v625h85v-298h1z" />
    <glyph glyph-name="L" unicode="L" horiz-adv-x="494" 
d="M79 0v625h85v-545h302v-80h-387z" />
    <glyph glyph-name="M" unicode="M" horiz-adv-x="772" 
d="M618 520l-190 -511h-85l-191 512l-7 -521h-83l21 625h113l192 -514l191 514h111l20 -625h-86z" />
    <glyph glyph-name="N" unicode="N" horiz-adv-x="668" 
d="M506 625h83v-631h-92l-335 510v-504h-83v625h94l333 -504v504z" />
    <glyph glyph-name="O" unicode="O" horiz-adv-x="720" 
d="M674 315c0 -187 -130 -330 -314 -330c-183 0 -314 128 -314 326c0 187 130 329 314 329c183 0 314 -128 314 -325zM589 311c0 154 -95 253 -231 253c-133 0 -226 -100 -226 -249c0 -155 93 -254 230 -254c132 0 227 101 227 250z" />
    <glyph glyph-name="P" unicode="P" horiz-adv-x="537" 
d="M500 423c0 -141 -98 -212 -254 -215l-82 -1v-207h-85v625h173c172 0 248 -85 248 -202zM414 419c0 85 -55 127 -166 127h-84v-259l91 2c105 3 159 49 159 130z" />
    <glyph glyph-name="Q" unicode="Q" horiz-adv-x="720" 
d="M693 -81l-37 -74l-269 142c-8 -1 -18 -2 -27 -2c-183 0 -314 128 -314 326c0 187 130 329 314 329c183 0 314 -128 314 -325c0 -135 -70 -248 -178 -298zM589 311c0 154 -95 253 -231 253c-133 0 -226 -100 -226 -249c0 -155 93 -255 230 -255c132 0 227 101 227 251z
" />
    <glyph glyph-name="R" unicode="R" horiz-adv-x="545" 
d="M164 0h-85v625h187c152 0 230 -71 230 -183c0 -95 -54 -152 -141 -180l169 -262h-101l-152 248l-107 -7v-241zM267 319c82 3 144 43 144 119c0 75 -59 109 -155 109h-92v-231z" />
    <glyph glyph-name="S" unicode="S" horiz-adv-x="509" 
d="M247 61c80 0 136 42 136 105c0 64 -47 88 -150 115c-89 24 -187 62 -187 183c0 105 85 176 209 176c72 0 138 -18 197 -55l-30 -74c-48 32 -110 52 -166 52c-91 0 -127 -41 -127 -93c0 -63 53 -85 152 -112c91 -24 184 -68 184 -186c0 -108 -89 -187 -220 -187
c-73 0 -149 20 -209 59l28 77c53 -35 110 -60 183 -60z" />
    <glyph glyph-name="T" unicode="T" horiz-adv-x="560" 
d="M322 545v-545h-84v545h-219v80h522v-80h-219z" />
    <glyph glyph-name="U" unicode="U" horiz-adv-x="646" 
d="M568 241c0 -157 -82 -256 -246 -256c-157 0 -244 98 -244 247v393h84v-380c0 -113 53 -180 165 -180c97 0 157 57 157 174v386h84v-384z" />
    <glyph glyph-name="V" unicode="V" horiz-adv-x="563" 
d="M329 0h-98l-231 625h87l194 -534l194 534h88z" />
    <glyph glyph-name="W" unicode="W" horiz-adv-x="898" 
d="M292 0h-83l-178 625h89l135 -509l147 509h98l151 -509l133 509h83l-177 -625h-85l-155 520z" />
    <glyph glyph-name="X" unicode="X" horiz-adv-x="574" 
d="M112 0h-100l224 314l-217 311h104l163 -245l168 245h101l-219 -306l226 -319h-106l-171 257z" />
    <glyph glyph-name="Y" unicode="Y" horiz-adv-x="540" 
d="M313 248v-248h-85v249l-218 376h96l166 -292l164 292h94z" />
    <glyph glyph-name="Z" unicode="Z" horiz-adv-x="521" 
d="M23 0v64l354 482h-348v79h454v-66l-353 -480h352v-79h-459z" />
    <glyph glyph-name="bracketleft" unicode="[" horiz-adv-x="366" 
d="M83 -222v897h274v-65h-203v-767h203v-65h-274z" />
    <glyph glyph-name="backslash" unicode="\" horiz-adv-x="217" 
d="M26 702l243 -901h-60l-243 901h60z" />
    <glyph glyph-name="bracketright" unicode="]" horiz-adv-x="366" 
d="M10 -157h203v767h-203v65h274v-897h-274v65z" />
    <glyph glyph-name="asciicircum" unicode="^" 
d="M299 520l-98 127h-1l-99 -127h-60l115 187h88l115 -187h-60z" />
    <glyph glyph-name="underscore" unicode="_" horiz-adv-x="461" 
d="M-12 -59v59h485v-59h-485z" />
    <glyph glyph-name="quoteleft" unicode="&#x2018;" horiz-adv-x="220" 
d="M179 438c-4 -32 -25 -59 -68 -59c-41 0 -85 39 -85 91c0 82 73 146 149 195l34 -34c-69 -51 -101 -92 -101 -127c0 -25 16 -41 71 -66z" />
    <glyph glyph-name="a" unicode="a" horiz-adv-x="451" 
d="M306 228c-136 -17 -186 -46 -186 -102c0 -41 30 -71 81 -71c43 0 78 21 105 49v124zM305 49c-35 -41 -77 -64 -126 -64c-86 0 -146 56 -146 131c0 83 59 153 273 164v13c0 75 -28 104 -103 104c-47 0 -105 -22 -148 -51l-16 74c40 28 107 53 172 53
c125 0 180 -53 177 -178v-192c0 -37 5 -45 45 -45l-5 -69c-75 -7 -107 20 -119 60h-4z" />
    <glyph glyph-name="b" unicode="b" horiz-adv-x="523" 
d="M485 231c0 -139 -96 -246 -233 -246c-27 0 -70 6 -99 15l-82 -15v689l82 13v-271c33 31 73 57 128 57c129 0 204 -104 204 -242zM400 229c0 101 -51 168 -136 168c-43 0 -80 -17 -111 -44v-261c27 -22 61 -33 102 -33c93 0 145 77 145 170z" />
    <glyph glyph-name="c" unicode="c" horiz-adv-x="456" 
d="M417 23c-41 -25 -92 -38 -151 -38c-144 0 -225 99 -225 244c0 147 98 244 231 244c60 0 105 -12 148 -39l-21 -75c-37 25 -80 38 -127 38c-95 0 -146 -63 -146 -167c0 -107 57 -169 144 -169c48 0 95 13 132 38z" />
    <glyph glyph-name="d" unicode="d" horiz-adv-x="526" 
d="M373 674l82 13v-687h-82v42c-33 -31 -73 -57 -128 -57c-129 0 -204 104 -204 242c0 139 96 246 233 246c33 0 70 -6 99 -15v216zM373 366c-27 22 -61 33 -102 33c-93 0 -145 -77 -145 -170c0 -101 51 -168 136 -168c43 0 80 17 111 44v261z" />
    <glyph glyph-name="e" unicode="e" horiz-adv-x="480" 
d="M124 215c3 -90 63 -154 151 -154c48 0 100 13 137 38l15 -76c-41 -25 -95 -38 -154 -38c-138 0 -232 99 -232 239c0 148 98 249 226 249c112 0 175 -70 175 -179c0 -25 -3 -53 -10 -73h-48c-29 0 -67 0 -106 -1c-45 -1 -97 -1 -154 -1v-4zM363 281v7
c0 68 -32 113 -104 113c-79 0 -123 -62 -131 -122z" />
    <glyph glyph-name="f" unicode="f" horiz-adv-x="316" 
d="M331 674c0 -2 -20 -77 -20 -75c-21 9 -50 20 -73 20c-47 0 -68 -28 -68 -97v-64h145l-3 -74h-142v-384h-82v383l-80 6l4 52l75 22l1 58c3 128 60 175 151 175c35 0 69 -11 92 -22z" />
    <glyph glyph-name="g" unicode="g" horiz-adv-x="476" 
d="M127 299c0 -61 40 -102 107 -102c60 0 98 43 98 107c0 60 -34 103 -105 103c-60 0 -100 -44 -100 -108zM167 -22c-47 -13 -79 -39 -79 -74c0 -49 57 -85 145 -85c85 0 154 37 154 93c0 51 -45 62 -137 62c-29 0 -63 1 -83 4zM105 -7c-39 17 -60 45 -60 77
c0 39 29 73 76 89c-48 28 -76 77 -76 141c0 90 67 173 186 173c49 0 89 -13 118 -26l118 11l3 -81l-88 16c19 -17 31 -59 31 -94c0 -92 -76 -168 -183 -168c-23 0 -37 3 -64 11c-19 -7 -45 -25 -45 -48c0 -27 18 -43 104 -43h42c137 0 200 -42 200 -123
c0 -100 -108 -176 -247 -176c-120 0 -213 52 -213 134c0 52 34 95 98 107z" />
    <glyph glyph-name="h" unicode="h" horiz-adv-x="517" 
d="M368 0v288c0 80 -30 106 -90 106c-53 0 -98 -25 -125 -50v-344h-82v674l82 13v-281c43 43 95 67 154 67c88 0 143 -58 143 -158v-315h-82z" />
    <glyph glyph-name="i" unicode="i" horiz-adv-x="224" 
d="M166 618c0 -31 -17 -59 -54 -59s-54 28 -54 59s17 59 54 59s54 -28 54 -59zM71 0v460l82 13v-473h-82z" />
    <glyph glyph-name="j" unicode="j" horiz-adv-x="221" 
d="M166 618c0 -31 -17 -59 -54 -59s-54 28 -54 59s17 59 54 59s54 -28 54 -59zM-9 -191c57 27 80 67 80 166v485l82 13v-492c0 -131 -29 -187 -107 -230z" />
    <glyph glyph-name="k" unicode="k" horiz-adv-x="456" 
d="M153 226v-226h-82v674l82 13v-439h2l189 210h104l-210 -217l211 -241h-105l-189 226h-2z" />
    <glyph glyph-name="l" unicode="l" horiz-adv-x="224" 
d="M71 0v674l82 13v-687h-82z" />
    <glyph glyph-name="m" unicode="m" horiz-adv-x="792" 
d="M643 0v286c0 80 -28 109 -88 109c-51 0 -89 -27 -116 -52v-28v-315h-82v286c0 80 -28 109 -88 109c-51 0 -89 -22 -116 -47v-348h-82v460l82 13v-63c44 42 93 63 147 63c53 0 97 -25 120 -76c49 49 102 76 166 76c84 0 139 -59 139 -160v-313h-82z" />
    <glyph glyph-name="n" unicode="n" horiz-adv-x="517" 
d="M368 0v288c0 80 -30 106 -95 106c-48 0 -93 -25 -120 -50v-344h-82v460l82 13v-69c43 43 96 69 149 69c93 0 148 -58 148 -158v-315h-82z" />
    <glyph glyph-name="o" unicode="o" horiz-adv-x="528" 
d="M487 229c0 -147 -96 -244 -225 -244c-130 0 -221 96 -221 244c0 147 95 245 226 245s220 -97 220 -245zM406 228c0 99 -52 172 -143 172c-92 0 -141 -70 -141 -170c0 -98 52 -171 143 -171c92 0 141 70 141 169z" />
    <glyph glyph-name="p" unicode="p" horiz-adv-x="526" 
d="M153 416c33 31 73 57 128 57c129 0 204 -104 204 -242c0 -139 -96 -246 -233 -246c-27 0 -70 4 -99 12v-230h-82v693l82 13v-57zM153 92c27 -22 61 -33 102 -33c93 0 145 77 145 170c0 101 -51 168 -136 168c-43 0 -80 -17 -111 -44v-261z" />
    <glyph glyph-name="q" unicode="q" horiz-adv-x="526" 
d="M373 -233v275c-33 -31 -73 -57 -128 -57c-129 0 -204 104 -204 242c0 139 96 246 233 246c43 0 88 -9 117 -17l64 17v-706h-82zM373 366c-27 23 -62 35 -102 35c-93 0 -145 -78 -145 -172c0 -101 51 -170 136 -170c43 0 80 19 111 46v261z" />
    <glyph glyph-name="r" unicode="r" horiz-adv-x="381" 
d="M153 0h-82v460l82 13v-81c32 51 69 81 128 81c33 0 61 -8 86 -23l-21 -77c-25 15 -50 21 -73 21c-44 0 -85 -31 -120 -95v-299z" />
    <glyph glyph-name="s" unicode="s" horiz-adv-x="401" 
d="M364 130c0 -87 -73 -146 -173 -146c-56 0 -117 16 -160 43l21 75c39 -27 94 -43 141 -43c52 0 91 24 91 65c0 46 -55 60 -108 76c-65 19 -136 50 -136 134s72 139 164 139c53 0 105 -13 148 -34l-21 -75c-39 21 -92 34 -131 34c-49 0 -81 -20 -81 -57
c0 -45 49 -58 106 -74c67 -19 139 -49 139 -137z" />
    <glyph glyph-name="t" unicode="t" horiz-adv-x="339" 
d="M312 5c-35 -13 -69 -20 -103 -20c-89 0 -136 43 -133 143l7 256l-76 5l3 52l76 23l2 99h79l-3 -105h143l-3 -74h-143l-7 -259c-1 -43 19 -65 60 -65c28 0 56 6 83 17c1 0 4 -17 8 -36c3 -11 5 -23 7 -36z" />
    <glyph glyph-name="u" unicode="u" horiz-adv-x="517" 
d="M149 458v-288c0 -80 30 -106 90 -106c53 0 98 25 125 50v344h82v-460l-82 -13v67c-43 -43 -95 -67 -154 -67c-88 0 -143 58 -143 158v315h82z" />
    <glyph glyph-name="v" unicode="v" horiz-adv-x="441" 
d="M259 -1h-76l-181 459h88l134 -356l128 356h87z" />
    <glyph glyph-name="w" unicode="w" horiz-adv-x="684" 
d="M155 -2l-141 460h88l97 -340l106 338h75l117 -339l84 341h91l-138 -460h-75l-117 342l-112 -342h-75z" />
    <glyph glyph-name="x" unicode="x" horiz-adv-x="414" 
d="M321 0l-114 179l-112 -179h-94l157 234l-148 224h92l105 -165l100 165h94l-145 -222l157 -236h-92z" />
    <glyph glyph-name="y" unicode="y" horiz-adv-x="441" 
d="M256 -5l-31 -82c-42 -117 -91 -151 -161 -151c-35 0 -66 9 -97 24l24 76c24 -12 50 -22 73 -22c35 0 56 19 88 99l28 71l-178 448h88l133 -356l129 356h87z" />
    <glyph glyph-name="z" unicode="z" horiz-adv-x="410" 
d="M21 0v70l266 313h-257v75h356v-68l-266 -315h266v-75h-365z" />
    <glyph glyph-name="braceleft" unicode="{" horiz-adv-x="339" 
d="M322 -229c-144 7 -223 42 -223 134c0 81 47 142 47 204c0 57 -37 75 -122 82l-3 40l3 40c85 7 122 23 122 82c0 64 -47 123 -47 204c0 92 79 128 223 135v-57c-108 -8 -149 -30 -149 -73c0 -61 48 -118 48 -195c0 -76 -47 -126 -135 -131v-10c88 -7 135 -56 135 -132
c0 -77 -48 -132 -48 -191c0 -45 41 -69 149 -76v-56z" />
    <glyph glyph-name="bar" unicode="|" horiz-adv-x="227" 
d="M80 702h67v-901h-67v901z" />
    <glyph glyph-name="braceright" unicode="}" horiz-adv-x="339" 
d="M315 191c-85 -7 -123 -25 -123 -82c0 -62 48 -123 48 -204c0 -92 -78 -127 -223 -134v56c108 7 149 31 149 75c0 59 -47 116 -47 192s45 125 134 132v10c-89 5 -134 55 -134 131c0 77 47 134 47 195c0 43 -41 65 -149 73v57c145 -7 223 -43 223 -135
c0 -81 -48 -140 -48 -204c0 -59 38 -75 123 -82l3 -40z" />
    <glyph glyph-name="asciitilde" unicode="~" 
d="M371 304c-9 -85 -36 -126 -97 -126s-116 69 -153 69c-19 0 -31 -15 -38 -62h-55c9 87 36 127 97 127s116 -70 153 -70c19 0 30 15 37 62h56z" />
    <glyph glyph-name="exclamdown" unicode="&#xa1;" horiz-adv-x="275" 
d="M73 574c0 35 25 65 64 65c37 0 65 -30 65 -65s-28 -63 -65 -63c-39 0 -64 28 -64 63zM187 -28h-100l26 458h48z" />
    <glyph glyph-name="cent" unicode="&#xa2;" horiz-adv-x="445" 
d="M327 468c35 -5 65 -17 93 -34l-21 -75c-25 17 -52 28 -82 33l-44 -331c47 0 93 13 129 38l15 -76c-41 -25 -91 -38 -149 -38h-6c1 0 -3 -27 -7 -54c-3 -16 -5 -34 -7 -54h-49l15 113c-107 23 -173 114 -173 239c0 147 96 244 229 244h9l12 90h49zM269 397
c-93 -1 -143 -63 -143 -167c0 -87 37 -144 98 -163z" />
    <glyph glyph-name="sterling" unicode="&#xa3;" horiz-adv-x="510" 
d="M124 328c-2 36 -3 69 -3 98c0 146 87 214 199 214c59 0 107 -16 148 -43l-20 -73c-35 23 -78 42 -129 42c-80 0 -116 -56 -116 -132c0 -29 1 -65 4 -106h196l-3 -54h-191c1 -31 2 -59 2 -90c0 -26 -2 -48 -7 -67c45 -37 101 -57 138 -57c45 0 85 24 100 107l63 -14
c-8 -109 -79 -168 -156 -168c-60 0 -121 34 -169 77c-27 -36 -68 -62 -139 -79c-3 13 -6 25 -9 35c-5 17 -10 34 -10 31c86 24 107 54 107 127c0 31 -1 64 -3 98h-93l-3 54h94z" />
    <glyph glyph-name="fraction" unicode="&#x2044;" horiz-adv-x="575" 
d="M69 -15h-62l500 654h61z" />
    <glyph glyph-name="yen" unicode="&#xa5;" horiz-adv-x="543" 
d="M57 263l-3 55h154l-196 307h95l165 -275l164 275h92l-194 -307h153l-3 -55h-174v-78h174l3 -54h-176v-131h-81v131h-176l3 54h174v78h-174z" />
    <glyph glyph-name="florin" unicode="&#x192;" horiz-adv-x="356" 
d="M123 330l-109 6l14 52l110 22l15 73c19 95 58 148 143 148c44 0 82 -16 106 -35c-1 -3 -3 -7 -5 -11c-3 -7 -7 -15 -12 -24l-18 -34c-23 15 -47 27 -71 27c-36 0 -55 -19 -67 -80l-13 -69h119l-11 -74h-122l-38 -198c-17 -89 -65 -136 -161 -151l-19 75
c64 7 94 35 103 83z" />
    <glyph glyph-name="section" unicode="&#xa7;" horiz-adv-x="471" 
d="M455 295c0 -60 -37 -103 -96 -124c28 -21 47 -49 47 -89c0 -87 -73 -148 -173 -148c-56 0 -117 16 -160 43l21 75c39 -27 94 -43 141 -43c52 0 91 24 91 65c0 43 -62 62 -131 80c-81 24 -169 48 -169 135c0 58 50 103 103 122c-32 21 -54 48 -54 91c0 85 72 141 164 141
c53 0 105 -13 148 -34l-21 -75c-39 21 -92 34 -131 34c-49 0 -81 -20 -81 -57c0 -42 63 -56 130 -75c80 -24 171 -52 171 -141zM378 277c0 65 -122 74 -210 114c-32 -20 -66 -48 -66 -83c0 -63 129 -71 218 -114c31 19 58 44 58 83z" />
    <glyph glyph-name="currency" unicode="&#xa4;" horiz-adv-x="502" 
d="M33 369l-3 55h83c29 153 119 216 227 216c61 0 112 -13 153 -38l-20 -73c-39 25 -84 37 -133 37c-76 0 -124 -45 -144 -142h227l-3 -55h-231c-1 -16 -2 -33 -2 -52c0 -21 1 -41 3 -59h200l3 -55h-195c23 -100 73 -144 141 -144c53 0 99 12 137 37l14 -74
c-41 -25 -92 -37 -153 -37c-114 0 -202 58 -226 218h-81l3 55h72c-1 16 -2 32 -2 51c0 21 1 41 2 60h-72z" />
    <glyph glyph-name="quotesingle" unicode="'" horiz-adv-x="154" 
d="M-5 398l115 247l75 -36l-156 -211h-34z" />
    <glyph glyph-name="quotedblleft" unicode="&#x201c;" horiz-adv-x="434" 
d="M393 438c-4 -32 -25 -59 -68 -59c-41 0 -85 39 -85 91c0 82 73 146 149 195l34 -34c-69 -51 -101 -92 -101 -127c0 -25 16 -41 71 -66zM179 438c-4 -32 -25 -59 -68 -59c-41 0 -85 39 -85 91c0 82 73 146 149 195l34 -34c-69 -51 -101 -92 -101 -127c0 -25 16 -41 71 -66
z" />
    <glyph glyph-name="guillemotleft" unicode="&#xab;" horiz-adv-x="580" 
d="M547 25l-262 162v94l262 162l7 -60l-194 -148v-2l194 -148zM269 36l-249 153v90l249 153l8 -56l-185 -141v-2l185 -141z" />
    <glyph glyph-name="guilsinglleft" unicode="&#x2039;" horiz-adv-x="342" 
d="M292 25l-262 162v94l262 162l8 -60l-200 -148v-2l200 -148z" />
    <glyph glyph-name="guilsinglright" unicode="&#x203a;" horiz-adv-x="342" 
d="M50 25l-8 60l200 148v2l-200 148l8 60l262 -162v-94z" />
    <glyph glyph-name="fi" unicode="&#xfb01;" horiz-adv-x="537" 
d="M170 384v-384h-82v383l-80 6l4 52l75 22l1 58c3 128 60 175 151 175c35 0 69 -11 92 -22c0 -2 -20 -77 -20 -75c-21 9 -50 20 -73 20c-47 0 -68 -28 -68 -97v-64h217l82 15v-473h-82v384h-217z" />
    <glyph glyph-name="fl" unicode="&#xfb02;" horiz-adv-x="540" 
d="M331 674c0 -2 -20 -77 -20 -75c-21 9 -50 20 -73 20c-47 0 -68 -28 -68 -97v-64h145l-3 -74h-142v-384h-82v383l-80 6l4 52l75 22l1 58c3 128 60 175 151 175c35 0 69 -11 92 -22zM387 0v674l82 13v-687h-82z" />
    <glyph glyph-name="endash" unicode="&#x2013;" horiz-adv-x="461" 
d="M30 207l3 59h397l3 -59h-403z" />
    <glyph glyph-name="dagger" unicode="&#x2020;" horiz-adv-x="463" 
d="M35 386l-3 56h169v183h60v-183h170l-3 -56h-167v-512h-60v512h-166z" />
    <glyph glyph-name="daggerdbl" unicode="&#x2021;" horiz-adv-x="463" 
d="M35 401l-3 56h169v168h60v-168h170l-3 -56h-167v-304h167l3 -56h-170v-167h-60v167h-169l3 56h166v304h-166z" />
    <glyph glyph-name="periodcentered" unicode="&#xb7;" horiz-adv-x="220" 
d="M175 228c0 -35 -26 -65 -63 -65c-39 0 -65 30 -65 65s26 63 65 63c37 0 63 -28 63 -63z" />
    <glyph glyph-name="paragraph" unicode="&#xb6;" horiz-adv-x="498" 
d="M338 261c-19 -4 -38 -7 -61 -7c-158 0 -232 79 -232 182c0 125 98 189 239 189h123v-689h-69v325z" />
    <glyph glyph-name="bullet" unicode="&#x2022;" horiz-adv-x="449" 
d="M417 232c0 -28 -35 -116 -56 -137c-20 -20 -108 -56 -137 -56c-28 0 -116 37 -135 56c-19 22 -57 108 -57 137c0 28 37 116 57 136s108 56 136 56c27 0 118 -35 136 -56c21 -18 56 -109 56 -136z" />
    <glyph glyph-name="quotesinglbase" unicode="&#x201a;" horiz-adv-x="220" 
d="M41 72c4 32 25 59 68 59c41 0 85 -39 85 -91c0 -82 -73 -147 -148 -195l-35 34c68 49 102 92 102 127c0 25 -17 41 -72 66z" />
    <glyph glyph-name="quotedblbase" unicode="&#x201e;" horiz-adv-x="420" 
d="M255 72c4 32 25 59 68 59c41 0 85 -39 85 -91c0 -82 -73 -147 -148 -195l-35 34c68 49 102 92 102 127c0 25 -17 41 -72 66zM41 72c4 32 25 59 68 59c41 0 85 -39 85 -91c0 -82 -73 -147 -148 -195l-35 34c68 49 102 92 102 127c0 25 -17 41 -72 66z" />
    <glyph glyph-name="quotedblright" unicode="&#x201d;" horiz-adv-x="434" 
d="M255 608c4 32 25 59 68 59c41 0 85 -39 85 -91c0 -82 -73 -147 -148 -195l-35 34c68 49 102 92 102 127c0 25 -17 41 -72 66zM41 608c4 32 25 59 68 59c41 0 85 -39 85 -91c0 -82 -73 -147 -148 -195l-35 34c68 49 102 92 102 127c0 25 -17 41 -72 66z" />
    <glyph glyph-name="guillemotright" unicode="&#xbb;" horiz-adv-x="586" 
d="M317 36l-8 56l185 141v2l-185 141l8 56l249 -153v-90zM39 25l-7 60l194 148v2l-194 148l7 60l262 -162v-94z" />
    <glyph glyph-name="ellipsis" unicode="&#x2026;" horiz-adv-x="672" 
d="M627 50c0 -35 -25 -65 -64 -65c-37 0 -65 30 -65 65s28 63 65 63c39 0 64 -28 64 -63zM401 50c0 -35 -26 -65 -63 -65c-39 0 -66 30 -66 65s27 63 66 63c37 0 63 -28 63 -63zM175 50c0 -35 -26 -65 -63 -65c-39 0 -65 30 -65 65s26 63 65 63c37 0 63 -28 63 -63z" />
    <glyph glyph-name="perthousand" unicode="&#x2030;" horiz-adv-x="1120" 
d="M346 482c0 -88 -63 -165 -166 -165c-102 0 -166 77 -166 165c0 91 64 167 166 167c103 0 166 -76 166 -167zM153 -15h-63l498 654h63zM726 142c0 -91 -64 -167 -166 -167c-103 0 -166 76 -166 167c0 88 63 165 166 165c102 0 166 -77 166 -165zM292 482
c0 64 -41 115 -112 115s-112 -51 -112 -115c0 -60 42 -113 112 -113s112 53 112 113zM672 142c0 60 -42 113 -112 113s-112 -53 -112 -113c0 -64 41 -115 112 -115s112 51 112 115zM1106 142c0 -91 -64 -167 -166 -167c-103 0 -166 76 -166 167c0 88 63 165 166 165
c102 0 166 -77 166 -165zM1052 142c0 60 -42 113 -112 113s-112 -53 -112 -113c0 -64 41 -115 112 -115s112 51 112 115z" />
    <glyph glyph-name="questiondown" unicode="&#xbf;" horiz-adv-x="356" 
d="M38 146c0 88 55 113 106 132c43 16 76 28 76 64c0 31 -26 58 -54 85l38 12c38 -22 79 -62 79 -113c0 -67 -51 -90 -100 -109c-43 -16 -81 -30 -81 -70c0 -45 44 -84 133 -84c27 0 52 5 69 8v-77c-19 -5 -41 -9 -76 -9c-111 0 -190 75 -190 161zM141 574c0 35 26 65 63 65
c39 0 66 -30 66 -65s-27 -63 -66 -63c-37 0 -63 28 -63 63z" />
    <glyph glyph-name="grave" unicode="`" 
d="M217 520l-146 181h100l106 -181h-60z" />
    <glyph glyph-name="acute" unicode="&#xb4;" 
d="M183 520h-60l106 181h100z" />
    <glyph glyph-name="circumflex" unicode="&#x2c6;" 
d="M299 520l-98 127h-1l-99 -127h-60l115 187h88l115 -187h-60z" />
    <glyph glyph-name="tilde" unicode="&#x2dc;" 
d="M371 649c-9 -85 -36 -126 -97 -126s-116 69 -153 69c-19 0 -31 -15 -38 -62h-55c9 87 36 127 97 127s116 -70 153 -70c19 0 30 15 37 62h56z" />
    <glyph glyph-name="macron" unicode="&#xaf;" 
d="M62 538l4 53h266l5 -53h-275z" />
    <glyph glyph-name="breve" unicode="&#x2d8;" 
d="M360 706c-13 -106 -63 -187 -160 -187s-147 81 -160 187h67c13 -66 39 -122 93 -122c53 0 82 56 93 122h67z" />
    <glyph glyph-name="dotaccent" unicode="&#x2d9;" 
d="M257 585c0 -32 -23 -60 -58 -60s-57 28 -57 60c0 33 22 61 57 61s58 -28 58 -61z" />
    <glyph glyph-name="dieresis" unicode="&#xa8;" 
d="M362 587c0 -35 -24 -63 -60 -63s-60 28 -60 63c0 33 24 62 60 62s60 -29 60 -62zM158 587c0 -35 -25 -63 -61 -63c-35 0 -60 28 -60 63c0 33 25 62 60 62c36 0 61 -29 61 -62z" />
    <glyph glyph-name="ring" unicode="&#x2da;" 
d="M324 631c0 -60 -47 -109 -124 -109s-124 49 -124 109s47 110 124 110s123 -50 124 -110zM272 632c0 36 -27 66 -72 66c-44 0 -71 -30 -71 -66s27 -67 71 -67c45 0 72 31 72 67z" />
    <glyph glyph-name="cedilla" unicode="&#xb8;" 
d="M193 -68c79 0 123 -31 123 -82c0 -56 -47 -96 -164 -111l-6 52c75 4 106 25 106 54c0 31 -36 47 -120 34l-8 42l120 118h59z" />
    <glyph glyph-name="hungarumlaut" unicode="&#x2dd;" 
d="M304 520h-71l134 177h84zM141 520h-70l111 177h83z" />
    <glyph glyph-name="ogonek" unicode="&#x2db;" 
d="M305 -221c-29 -19 -68 -35 -107 -35c-72 0 -120 44 -120 108c0 68 64 145 180 177h72c-128 -51 -186 -122 -186 -172c0 -35 24 -57 60 -57c28 0 59 10 93 31z" />
    <glyph glyph-name="caron" unicode="&#x2c7;" 
d="M244 520h-88l-115 187h60l98 -127h1l99 127h60z" />
    <glyph glyph-name="emdash" unicode="&#x2014;" horiz-adv-x="931" 
d="M30 207l3 59h867l3 -59h-873z" />
    <glyph glyph-name="AE" unicode="&#xc6;" horiz-adv-x="832" 
d="M394 242v305l-172 -305h172zM86 0h-94l357 625h441v-79h-312v-193h260v-79h-260v-195h312v-79h-396v163h-217z" />
    <glyph glyph-name="ordfeminine" unicode="&#xaa;" horiz-adv-x="352" 
d="M268 248c-13 15 -23 33 -32 54h-1c-27 -28 -60 -53 -107 -53c-64 0 -106 44 -106 104c0 71 55 128 209 133v23c0 45 -26 68 -70 68c-39 0 -76 -16 -112 -44l-24 56c41 31 87 51 143 51c68 0 128 -29 128 -128v-144c0 -47 22 -80 41 -104zM231 436
c-111 -5 -144 -41 -144 -74c0 -39 28 -54 59 -54c35 0 66 14 85 33v95z" />
    <glyph glyph-name="Lslash" unicode="&#x141;" horiz-adv-x="511" 
d="M186 82h302v-82h-386v245l-84 -22v73l84 23v306h84v-284l156 42v-73l-156 -42v-186z" />
    <glyph glyph-name="Oslash" unicode="&#xd8;" horiz-adv-x="720" 
d="M677 315c0 -186 -130 -330 -314 -330c-51 0 -99 10 -140 29l-46 -81h-64l62 108c-79 56 -126 149 -126 270c0 187 130 329 314 329c51 0 97 -10 140 -29l47 81h64l-62 -108c77 -56 125 -148 125 -269zM464 542c-30 15 -64 22 -103 22c-132 0 -227 -100 -227 -249
c0 -88 31 -158 82 -202zM262 83c30 -15 64 -22 103 -22c133 0 226 101 226 250c0 88 -30 157 -81 201z" />
    <glyph glyph-name="OE" unicode="&#x152;" horiz-adv-x="922" 
d="M879 546h-311v-193h259v-79h-259v-195h311v-79h-499c-207 0 -331 122 -331 308c0 193 120 317 335 317h495v-79zM134 314c0 -155 91 -235 250 -235h99v467h-103c-149 0 -246 -79 -246 -232z" />
    <glyph glyph-name="ordmasculine" unicode="&#xba;" horiz-adv-x="421" 
d="M389 444c0 -117 -76 -195 -180 -195s-177 78 -177 195c0 118 75 196 181 196c105 0 176 -77 176 -196zM324 443c0 79 -42 138 -114 138c-73 0 -113 -56 -113 -136c0 -77 42 -137 114 -137c73 0 113 55 113 135z" />
    <glyph glyph-name="ae" unicode="&#xe6;" horiz-adv-x="754" 
d="M354 79c-32 -49 -91 -94 -175 -94c-86 0 -146 56 -146 131c0 82 62 156 283 164v10c0 83 -38 107 -113 107c-47 0 -105 -22 -148 -51l-16 74c40 28 107 53 172 53c95 0 138 -30 161 -77c36 47 95 77 167 77c112 0 175 -70 175 -179c0 -25 -3 -53 -10 -73h-48
c-29 0 -67 0 -106 -1c-45 -1 -97 -1 -154 -1v-4c3 -90 63 -154 151 -154c48 0 100 13 137 38l15 -76c-41 -25 -95 -38 -154 -38c-84 0 -151 37 -191 94zM635 281v7c0 68 -32 113 -104 113c-79 0 -123 -62 -131 -122zM316 228c-143 -13 -196 -46 -196 -102
c0 -41 30 -71 86 -71c44 0 98 31 125 66c-8 20 -15 83 -15 107z" />
    <glyph glyph-name="dotlessi" unicode="&#x131;" horiz-adv-x="224" 
d="M74 0v451l82 13v-464h-82z" />
    <glyph glyph-name="lslash" unicode="&#x142;" horiz-adv-x="261" 
d="M176 0h-82v244l-84 -22v76c16 4 30 8 42 11c21 7 42 12 42 11v354l82 13v-345c0 1 21 5 42 12c12 3 26 7 42 11v-76l-84 -23v-266z" />
    <glyph glyph-name="oslash" unicode="&#xf8;" horiz-adv-x="528" 
d="M490 229c0 -147 -96 -244 -225 -244c-33 0 -65 6 -94 19l-41 -71h-66c11 19 20 36 29 51c15 27 30 51 29 51c-49 43 -78 110 -78 194c0 147 95 245 226 245c33 0 65 -6 94 -19l41 71h66l-59 -102c49 -43 78 -111 78 -195zM326 388c-17 8 -37 12 -60 12
c-92 0 -141 -70 -141 -170c0 -53 12 -95 37 -126zM409 228c0 53 -12 95 -37 126l-163 -284c18 -7 38 -11 59 -11c92 0 141 70 141 169z" />
    <glyph glyph-name="oe" unicode="&#x153;" horiz-adv-x="850" 
d="M733 281v7c0 68 -32 113 -104 113c-79 0 -123 -62 -131 -122zM122 230c0 -98 52 -171 143 -171c92 0 141 70 141 169s-52 172 -143 172c-92 0 -141 -70 -141 -170zM447 88c-39 -65 -104 -103 -185 -103c-130 0 -221 96 -221 244c0 147 95 245 226 245
c84 0 147 -38 183 -105c40 65 107 104 187 104c112 0 175 -70 175 -179c0 -25 -3 -53 -10 -73h-48c-29 0 -67 0 -106 -1c-45 -1 -97 -1 -154 -1v-4c3 -90 63 -154 151 -154c48 0 100 13 137 38l15 -76c-41 -25 -95 -38 -154 -38c-88 0 -156 39 -196 103z" />
    <glyph glyph-name="germandbls" unicode="&#xdf;" horiz-adv-x="630" 
d="M331 674c0 -2 -20 -77 -20 -75c-21 9 -50 20 -73 20c-47 0 -68 -28 -68 -97v-522h-82v383l-80 6l4 52l75 22l1 58c3 129 60 175 151 175c35 0 69 -11 92 -22zM593 130c0 -87 -73 -146 -173 -146c-56 0 -117 16 -160 43l21 75c39 -27 94 -43 141 -43c52 0 91 24 91 65
c0 46 -55 60 -108 76c-65 19 -136 50 -136 134s72 139 164 139c53 0 105 -13 148 -34l-21 -75c-39 21 -92 34 -131 34c-49 0 -81 -20 -81 -57c0 -45 49 -58 106 -74c67 -19 139 -49 139 -137z" />
    <glyph glyph-name="logicalnot" unicode="&#xac;" horiz-adv-x="526" 
d="M373 366c-27 23 -62 35 -102 35c-93 0 -145 -78 -145 -172c0 -101 51 -170 136 -170c43 0 80 19 111 46v261zM245 -15c-129 0 -204 104 -204 242c0 139 96 246 233 246c43 0 88 -9 117 -17l64 17v-370c0 -37 5 -45 45 -45l-5 -69c-73 -7 -113 25 -122 60
c-35 -41 -73 -64 -128 -64z" />
    <glyph glyph-name="mu" unicode="&#xb5;" horiz-adv-x="528" 
d="M457 -4c0 -163 -78 -234 -211 -234c-63 0 -113 14 -160 38l21 76c43 -25 90 -37 139 -37c88 0 129 49 129 150v55c-33 -31 -73 -57 -128 -57c-129 0 -206 101 -206 240s98 246 235 246c43 0 88 -9 117 -17l64 17v-477zM375 366c-27 23 -62 35 -102 35
c-93 0 -147 -78 -147 -172c0 -101 53 -168 138 -168c43 0 80 19 111 46v259z" />
    <glyph glyph-name="trademark" unicode="&#x2122;" horiz-adv-x="949" 
d="M799 252l1 305h-11l-106 -294h-70l-93 293h-11l-5 -304h-58l7 374h114l80 -289h11l92 289h108l5 -374h-64zM245 565v-313h-63v313h-139v61h352v-61h-150z" />
    <glyph glyph-name="Eth" unicode="&#xd0;" horiz-adv-x="659" 
d="M343 353v-73h-159v-201h103c149 0 246 79 246 232c0 155 -91 235 -250 235h-99v-193h159zM16 280v73h83v272h188c207 0 331 -122 331 -308c0 -193 -120 -317 -335 -317h-184v280h-83z" />
    <glyph glyph-name="onehalf" unicode="&#xbd;" horiz-adv-x="863" 
d="M170 0h-82v383l-80 6l4 52l75 22l1 48c3 128 60 175 151 175c35 0 69 -11 92 -22c0 -2 -20 -77 -20 -75c-21 9 -50 20 -73 20c-47 0 -68 -28 -68 -97v-54h243l1 63c3 128 60 175 151 175c35 0 69 -11 92 -22c0 -2 -20 -77 -20 -75c-21 9 -50 20 -73 20
c-47 0 -68 -28 -68 -97v-64h217l82 15v-473h-82v384h-217v-384h-82v384h-244v-384z" />
    <glyph glyph-name="plusminus" unicode="&#xb1;" horiz-adv-x="728" 
d="M364 -16c-181 0 -327 146 -327 327c0 180 146 328 327 328s327 -148 327 -328c0 -181 -146 -327 -327 -327zM661 311c0 164 -133 300 -297 300s-297 -136 -297 -300s133 -299 297 -299s297 135 297 299zM519 365c0 -84 -56 -125 -148 -125h-50v-112h-62v354h116
c99 0 144 -49 144 -117zM456 363c0 43 -28 64 -85 64h-51v-133l55 1c54 1 81 24 81 68z" />
    <glyph glyph-name="Thorn" unicode="&#xde;" horiz-adv-x="531" 
d="M500 321c0 -141 -98 -212 -254 -215l-82 -1v-105h-85v625h85v-102h88c172 0 248 -85 248 -202zM414 317c0 85 -55 127 -166 127h-84v-259l91 2c105 3 159 49 159 130z" />
    <glyph glyph-name="onequarter" unicode="&#xbc;" horiz-adv-x="642" 
d="M170 0h-82v383l-80 6l4 52l75 22l1 48c3 128 60 175 151 175c35 0 69 -11 92 -22c0 -2 -20 -77 -20 -75c-21 9 -50 20 -73 20c-47 0 -68 -28 -68 -97v-54h243l1 63c3 128 60 175 151 175c35 0 69 -11 92 -22c0 -2 -20 -77 -20 -75c-21 9 -50 20 -73 20
c-47 0 -68 -28 -68 -97v-64h145l-3 -74h-142v-384h-82v384h-244v-384z" />
    <glyph glyph-name="divide" unicode="&#xf7;" horiz-adv-x="484" 
d="M40 199l3 71h400l3 -71h-406zM311 82c0 -35 -27 -67 -66 -67s-68 32 -68 67s29 65 68 65s66 -30 66 -65zM311 387c0 -35 -29 -65 -68 -65s-66 30 -66 65s27 67 66 67s68 -32 68 -67z" />
    <glyph glyph-name="brokenbar" unicode="&#xa6;" horiz-adv-x="371" 
d="M308 177c0 -128 -60 -192 -173 -192c-45 0 -87 14 -118 33l12 81c36 -24 71 -36 104 -36c63 0 91 34 91 115v447h84v-448z" />
    <glyph glyph-name="degree" unicode="&#xb0;" horiz-adv-x="373" 
d="M350 476c0 -88 -63 -163 -164 -163c-100 0 -163 75 -163 163c0 89 63 164 163 164c101 0 164 -75 164 -164zM297 476c0 64 -40 114 -111 114c-69 0 -110 -51 -110 -114c0 -60 41 -112 110 -112c70 0 111 52 111 112z" />
    <glyph glyph-name="thorn" unicode="&#xfe;" horiz-adv-x="520" 
d="M153 -246h-82v920l82 13v-266c33 27 74 52 123 52c133 0 209 -104 209 -242c0 -139 -96 -246 -233 -246c-27 0 -70 4 -99 12v-243zM153 92c27 -22 61 -33 102 -33c93 0 145 77 145 170c0 101 -51 168 -136 168c-43 0 -80 -17 -111 -44v-261z" />
    <glyph glyph-name="threequarters" unicode="&#xbe;" horiz-adv-x="866" 
d="M713 0v674l82 13v-687h-82zM170 0h-82v383l-80 6l4 52l75 22l1 48c3 128 60 175 151 175c35 0 69 -11 92 -22c0 -2 -20 -77 -20 -75c-21 9 -50 20 -73 20c-47 0 -68 -28 -68 -97v-54h243l1 63c3 128 60 175 151 175c35 0 69 -11 92 -22c0 -2 -20 -77 -20 -75
c-21 9 -50 20 -73 20c-47 0 -68 -28 -68 -97v-64h145l-3 -74h-142v-384h-82v384h-244v-384z" />
    <glyph glyph-name="registered" unicode="&#xae;" horiz-adv-x="728" 
d="M364 -16c-181 0 -327 147 -327 327s146 328 327 328s327 -148 327 -328s-146 -327 -327 -327zM661 311c0 164 -133 300 -297 300s-297 -136 -297 -300s133 -299 297 -299s297 135 297 299zM300 138h-62v354h128c88 0 136 -40 136 -111c0 -51 -25 -86 -68 -103l87 -140
h-71l-77 126l-73 -4v-122zM359 313c59 1 81 25 81 64c0 43 -26 60 -81 60h-60v-125z" />
    <glyph glyph-name="minus" unicode="&#x2212;" horiz-adv-x="484" 
d="M40 199l3 71h400l3 -71h-406z" />
    <glyph glyph-name="eth" unicode="&#xf0;" horiz-adv-x="534" 
d="M493 243c0 -146 -77 -258 -225 -258c-137 0 -227 96 -227 220c0 147 109 229 199 229c72 0 113 -28 146 -68l2 1c-18 52 -88 135 -144 191l-103 -28l-14 55l70 19c-25 24 -51 47 -79 70l93 22c27 -23 52 -44 75 -67l103 27l14 -55l-72 -19c96 -107 162 -226 162 -339z
M412 224c0 39 -9 67 -18 87c-19 29 -74 50 -137 50c-68 0 -128 -55 -128 -144c0 -101 58 -158 142 -158c83 0 141 58 141 165z" />
    <glyph glyph-name="multiply" unicode="&#xd7;" horiz-adv-x="484" 
d="M402 29l-157 159l-157 -159l-48 48l159 157l-159 157l48 48l157 -159l157 159l48 -48l-159 -157l159 -157z" />
    <glyph glyph-name="copyright" unicode="&#xa9;" horiz-adv-x="728" 
d="M364 -16c-181 0 -327 147 -327 327s146 328 327 328s327 -148 327 -328s-146 -327 -327 -327zM661 311c0 164 -133 300 -297 300s-297 -136 -297 -300s133 -299 297 -299s297 135 297 299zM474 414c-29 19 -61 28 -94 28c-73 0 -120 -49 -120 -129
c0 -81 48 -133 121 -133c37 0 73 14 98 33l12 -59c-29 -19 -72 -28 -112 -28c-108 0 -181 69 -181 184c0 113 75 186 182 186c40 0 83 -9 114 -28z" />
    <glyph glyph-name="Aacute" unicode="&#xc1;" horiz-adv-x="574" 
d="M569 0h-87l-59 164h-271l-59 -164h-88l235 625h97zM288 537l-108 -296h215zM313 687h-60l106 181h100z" />
    <glyph glyph-name="Acircumflex" unicode="&#xc2;" horiz-adv-x="574" 
d="M569 0h-87l-59 164h-271l-59 -164h-88l235 625h97zM288 537l-108 -296h215zM389 687l-98 127h-1l-99 -127h-60l115 187h88l115 -187h-60z" />
    <glyph glyph-name="Adieresis" unicode="&#xc4;" horiz-adv-x="574" 
d="M569 0h-87l-59 164h-271l-59 -164h-88l235 625h97zM288 537l-108 -296h215zM450 754c0 -35 -24 -63 -60 -63s-60 28 -60 63c0 33 24 62 60 62s60 -29 60 -62zM246 754c0 -35 -25 -63 -61 -63c-35 0 -60 28 -60 63c0 33 25 62 60 62c36 0 61 -29 61 -62z" />
    <glyph glyph-name="Agrave" unicode="&#xc0;" horiz-adv-x="574" 
d="M569 0h-87l-59 164h-271l-59 -164h-88l235 625h97zM288 537l-108 -296h215zM257 687l-146 181h100l106 -181h-60z" />
    <glyph glyph-name="Aring" unicode="&#xc5;" horiz-adv-x="574" 
d="M288 537l-108 -296h215zM225 587c-37 19 -60 54 -60 95c0 60 47 109 123 109s123 -49 123 -109c1 -40 -21 -76 -60 -95l218 -587h-87l-59 164h-271l-59 -164h-88zM361 683c0 36 -28 66 -73 66c-44 0 -71 -30 -71 -66s27 -67 71 -67c45 0 73 31 73 67z" />
    <glyph glyph-name="Atilde" unicode="&#xc3;" horiz-adv-x="574" 
d="M569 0h-87l-59 164h-271l-59 -164h-88l235 625h97zM288 537l-108 -296h215zM461 816c-9 -85 -36 -126 -97 -126s-116 69 -153 69c-19 0 -31 -15 -38 -62h-55c9 87 36 127 97 127s116 -70 153 -70c19 0 30 15 37 62h56z" />
    <glyph glyph-name="Ccedilla" unicode="&#xc7;" horiz-adv-x="601" 
d="M325 -13c-165 13 -279 139 -279 324c0 199 132 329 313 329c72 0 147 -20 198 -52l-27 -77c-56 36 -106 53 -171 53c-136 0 -227 -94 -227 -249s92 -254 229 -254c68 0 133 26 177 61l14 -85c-45 -28 -106 -47 -170 -51l-55 -54c79 0 123 -31 123 -82
c0 -56 -47 -96 -164 -111l-6 52c75 4 106 25 106 54c0 31 -36 47 -120 34l-8 42z" />
    <glyph glyph-name="Eacute" unicode="&#xc9;" horiz-adv-x="523" 
d="M79 0v625h396v-79h-311v-193h259v-79h-259v-195h311v-79h-396zM286 687h-60l106 181h100z" />
    <glyph glyph-name="Ecircumflex" unicode="&#xca;" horiz-adv-x="523" 
d="M79 0v625h396v-79h-311v-193h259v-79h-259v-195h311v-79h-396zM373 687l-98 127h-1l-99 -127h-60l115 187h88l115 -187h-60z" />
    <glyph glyph-name="Edieresis" unicode="&#xcb;" horiz-adv-x="523" 
d="M79 0v625h396v-79h-311v-193h259v-79h-259v-195h311v-79h-396zM436 754c0 -35 -24 -63 -60 -63s-60 28 -60 63c0 33 24 62 60 62s60 -29 60 -62zM232 754c0 -35 -25 -63 -61 -63c-35 0 -60 28 -60 63c0 33 25 62 60 62c36 0 61 -29 61 -62z" />
    <glyph glyph-name="Egrave" unicode="&#xc8;" horiz-adv-x="523" 
d="M79 0v625h396v-79h-311v-193h259v-79h-259v-195h311v-79h-396zM261 687l-146 181h100l106 -181h-60z" />
    <glyph glyph-name="Iacute" unicode="&#xcd;" horiz-adv-x="247" 
d="M81 0v625h84v-625h-84zM149 687h-60l106 181h100z" />
    <glyph glyph-name="Icircumflex" unicode="&#xce;" horiz-adv-x="247" 
d="M81 0v625h84v-625h-84zM225 687l-98 127h-1l-99 -127h-60l115 187h88l115 -187h-60z" />
    <glyph glyph-name="Idieresis" unicode="&#xcf;" horiz-adv-x="247" 
d="M81 0v625h84v-625h-84zM288 754c0 -35 -24 -63 -60 -63s-60 28 -60 63c0 33 24 62 60 62s60 -29 60 -62zM84 754c0 -35 -25 -63 -61 -63c-35 0 -60 28 -60 63c0 33 25 62 60 62c36 0 61 -29 61 -62z" />
    <glyph glyph-name="Igrave" unicode="&#xcc;" horiz-adv-x="247" 
d="M81 0v625h84v-625h-84zM103 687l-146 181h100l106 -181h-60z" />
    <glyph glyph-name="Ntilde" unicode="&#xd1;" horiz-adv-x="668" 
d="M506 625h83v-631h-92l-335 510v-504h-83v625h94l333 -504v504zM507 816c-9 -85 -36 -126 -97 -126s-116 69 -153 69c-19 0 -31 -15 -38 -62h-55c9 87 36 127 97 127s116 -70 153 -70c19 0 30 15 37 62h56z" />
    <glyph glyph-name="Oacute" unicode="&#xd3;" horiz-adv-x="720" 
d="M674 315c0 -187 -130 -330 -314 -330c-183 0 -314 128 -314 326c0 187 130 329 314 329c183 0 314 -128 314 -325zM589 311c0 154 -95 253 -231 253c-133 0 -226 -100 -226 -249c0 -155 93 -254 230 -254c132 0 227 101 227 250zM386 687h-60l106 181h100z" />
    <glyph glyph-name="Ocircumflex" unicode="&#xd4;" horiz-adv-x="720" 
d="M674 315c0 -187 -130 -330 -314 -330c-183 0 -314 128 -314 326c0 187 130 329 314 329c183 0 314 -128 314 -325zM589 311c0 154 -95 253 -231 253c-133 0 -226 -100 -226 -249c0 -155 93 -254 230 -254c132 0 227 101 227 250zM462 687l-98 127h-1l-99 -127h-60
l115 187h88l115 -187h-60z" />
    <glyph glyph-name="Odieresis" unicode="&#xd6;" horiz-adv-x="720" 
d="M674 315c0 -187 -130 -330 -314 -330c-183 0 -314 128 -314 326c0 187 130 329 314 329c183 0 314 -128 314 -325zM589 311c0 154 -95 253 -231 253c-133 0 -226 -100 -226 -249c0 -155 93 -254 230 -254c132 0 227 101 227 250zM525 754c0 -35 -24 -63 -60 -63
s-60 28 -60 63c0 33 24 62 60 62s60 -29 60 -62zM321 754c0 -35 -25 -63 -61 -63c-35 0 -60 28 -60 63c0 33 25 62 60 62c36 0 61 -29 61 -62z" />
    <glyph glyph-name="Ograve" unicode="&#xd2;" horiz-adv-x="720" 
d="M674 315c0 -187 -130 -330 -314 -330c-183 0 -314 128 -314 326c0 187 130 329 314 329c183 0 314 -128 314 -325zM589 311c0 154 -95 253 -231 253c-133 0 -226 -100 -226 -249c0 -155 93 -254 230 -254c132 0 227 101 227 250zM340 687l-146 181h100l106 -181h-60z" />
    <glyph glyph-name="Otilde" unicode="&#xd5;" horiz-adv-x="720" 
d="M674 315c0 -187 -130 -330 -314 -330c-183 0 -314 128 -314 326c0 187 130 329 314 329c183 0 314 -128 314 -325zM589 311c0 154 -95 253 -231 253c-133 0 -226 -100 -226 -249c0 -155 93 -254 230 -254c132 0 227 101 227 250zM534 816c-9 -85 -36 -126 -97 -126
s-116 69 -153 69c-19 0 -31 -15 -38 -62h-55c9 87 36 127 97 127s116 -70 153 -70c19 0 30 15 37 62h56z" />
    <glyph glyph-name="Scaron" unicode="&#x160;" horiz-adv-x="509" 
d="M247 61c80 0 136 42 136 105c0 64 -47 88 -150 115c-89 24 -187 62 -187 183c0 105 85 176 209 176c72 0 138 -18 197 -55l-30 -74c-48 32 -110 52 -166 52c-91 0 -127 -41 -127 -93c0 -63 53 -85 152 -112c91 -24 184 -68 184 -186c0 -108 -89 -187 -220 -187
c-73 0 -149 20 -209 59l28 77c53 -35 110 -60 183 -60zM301 687h-88l-115 187h60l98 -127h1l99 127h60z" />
    <glyph glyph-name="Uacute" unicode="&#xda;" horiz-adv-x="646" 
d="M568 241c0 -157 -82 -256 -246 -256c-157 0 -244 98 -244 247v393h84v-380c0 -113 53 -180 165 -180c97 0 157 57 157 174v386h84v-384zM338 687h-60l106 181h100z" />
    <glyph glyph-name="Ucircumflex" unicode="&#xdb;" horiz-adv-x="646" 
d="M568 241c0 -157 -82 -256 -246 -256c-157 0 -244 98 -244 247v393h84v-380c0 -113 53 -180 165 -180c97 0 157 57 157 174v386h84v-384zM424 687l-98 127h-1l-99 -127h-60l115 187h88l115 -187h-60z" />
    <glyph glyph-name="Udieresis" unicode="&#xdc;" horiz-adv-x="646" 
d="M568 241c0 -157 -82 -256 -246 -256c-157 0 -244 98 -244 247v393h84v-380c0 -113 53 -180 165 -180c97 0 157 57 157 174v386h84v-384zM487 754c0 -35 -24 -63 -60 -63s-60 28 -60 63c0 33 24 62 60 62s60 -29 60 -62zM283 754c0 -35 -25 -63 -61 -63
c-35 0 -60 28 -60 63c0 33 25 62 60 62c36 0 61 -29 61 -62z" />
    <glyph glyph-name="Ugrave" unicode="&#xd9;" horiz-adv-x="646" 
d="M568 241c0 -157 -82 -256 -246 -256c-157 0 -244 98 -244 247v393h84v-380c0 -113 53 -180 165 -180c97 0 157 57 157 174v386h84v-384zM312 687l-146 181h100l106 -181h-60z" />
    <glyph glyph-name="Yacute" unicode="&#xdd;" horiz-adv-x="540" 
d="M313 248v-248h-85v249l-218 376h96l166 -292l164 292h94zM295 687h-60l106 181h100z" />
    <glyph glyph-name="Ydieresis" unicode="&#x178;" horiz-adv-x="540" 
d="M313 248v-248h-85v249l-218 376h96l166 -292l164 292h94zM434 754c0 -35 -24 -63 -60 -63s-60 28 -60 63c0 33 24 62 60 62s60 -29 60 -62zM230 754c0 -35 -25 -63 -61 -63c-35 0 -60 28 -60 63c0 33 25 62 60 62c36 0 61 -29 61 -62z" />
    <glyph glyph-name="Zcaron" unicode="&#x17d;" horiz-adv-x="521" 
d="M23 0v64l354 482h-348v79h454v-66l-353 -480h352v-79h-459zM294 687h-88l-115 187h60l98 -127h1l99 127h60z" />
    <glyph glyph-name="aacute" unicode="&#xe1;" horiz-adv-x="451" 
d="M306 228c-136 -17 -186 -46 -186 -102c0 -41 30 -71 81 -71c43 0 78 21 105 49v124zM305 49c-35 -41 -77 -64 -126 -64c-86 0 -146 56 -146 131c0 83 59 153 273 164v13c0 75 -28 104 -103 104c-47 0 -105 -22 -148 -51l-16 74c40 28 107 53 172 53
c125 0 180 -53 177 -178v-192c0 -37 5 -45 45 -45l-5 -69c-75 -7 -107 20 -119 60h-4zM227 520h-60l106 181h100z" />
    <glyph glyph-name="acircumflex" unicode="&#xe2;" horiz-adv-x="451" 
d="M306 228c-136 -17 -186 -46 -186 -102c0 -41 30 -71 81 -71c43 0 78 21 105 49v124zM305 49c-35 -41 -77 -64 -126 -64c-86 0 -146 56 -146 131c0 83 59 153 273 164v13c0 75 -28 104 -103 104c-47 0 -105 -22 -148 -51l-16 74c40 28 107 53 172 53
c125 0 180 -53 177 -178v-192c0 -37 5 -45 45 -45l-5 -69c-75 -7 -107 20 -119 60h-4zM313 520l-98 127h-1l-99 -127h-60l115 187h88l115 -187h-60z" />
    <glyph glyph-name="adieresis" unicode="&#xe4;" horiz-adv-x="451" 
d="M306 228c-136 -17 -186 -46 -186 -102c0 -41 30 -71 81 -71c43 0 78 21 105 49v124zM305 49c-35 -41 -77 -64 -126 -64c-86 0 -146 56 -146 131c0 83 59 153 273 164v13c0 75 -28 104 -103 104c-47 0 -105 -22 -148 -51l-16 74c40 28 107 53 172 53
c125 0 180 -53 177 -178v-192c0 -37 5 -45 45 -45l-5 -69c-75 -7 -107 20 -119 60h-4zM376 587c0 -35 -24 -63 -60 -63s-60 28 -60 63c0 33 24 62 60 62s60 -29 60 -62zM172 587c0 -35 -25 -63 -61 -63c-35 0 -60 28 -60 63c0 33 25 62 60 62c36 0 61 -29 61 -62z" />
    <glyph glyph-name="agrave" unicode="&#xe0;" horiz-adv-x="451" 
d="M306 228c-136 -17 -186 -46 -186 -102c0 -41 30 -71 81 -71c43 0 78 21 105 49v124zM305 49c-35 -41 -77 -64 -126 -64c-86 0 -146 56 -146 131c0 83 59 153 273 164v13c0 75 -28 104 -103 104c-47 0 -105 -22 -148 -51l-16 74c40 28 107 53 172 53
c125 0 180 -53 177 -178v-192c0 -37 5 -45 45 -45l-5 -69c-75 -7 -107 20 -119 60h-4zM191 520l-146 181h100l106 -181h-60z" />
    <glyph glyph-name="aring" unicode="&#xe5;" horiz-adv-x="451" 
d="M306 228c-136 -17 -186 -46 -186 -102c0 -41 30 -71 81 -71c43 0 78 21 105 49v124zM305 49c-35 -41 -77 -64 -126 -64c-86 0 -146 56 -146 131c0 83 59 153 273 164v13c0 75 -28 104 -103 104c-47 0 -105 -22 -148 -51l-16 74c40 28 107 53 172 53
c125 0 180 -53 177 -178v-192c0 -37 5 -45 45 -45l-5 -69c-75 -7 -107 20 -119 60h-4zM338 631c0 -60 -47 -109 -124 -109s-124 49 -124 109s47 110 124 110s123 -50 124 -110zM286 632c0 36 -27 66 -72 66c-44 0 -71 -30 -71 -66s27 -67 71 -67c45 0 72 31 72 67z" />
    <glyph glyph-name="atilde" unicode="&#xe3;" horiz-adv-x="451" 
d="M306 228c-136 -17 -186 -46 -186 -102c0 -41 30 -71 81 -71c43 0 78 21 105 49v124zM305 49c-35 -41 -77 -64 -126 -64c-86 0 -146 56 -146 131c0 83 59 153 273 164v13c0 75 -28 104 -103 104c-47 0 -105 -22 -148 -51l-16 74c40 28 107 53 172 53
c125 0 180 -53 177 -178v-192c0 -37 5 -45 45 -45l-5 -69c-75 -7 -107 20 -119 60h-4zM385 649c-9 -85 -36 -126 -97 -126s-116 69 -153 69c-19 0 -31 -15 -38 -62h-55c9 87 36 127 97 127s116 -70 153 -70c19 0 30 15 37 62h56z" />
    <glyph glyph-name="ccedilla" unicode="&#xe7;" horiz-adv-x="456" 
d="M238 -14c-127 11 -197 108 -197 243c0 147 98 244 231 244c60 0 105 -12 148 -39l-21 -75c-37 25 -80 38 -127 38c-95 0 -146 -63 -146 -167c0 -107 57 -169 144 -169c48 0 95 13 132 38l15 -76c-35 -21 -75 -33 -120 -37l-56 -54c79 0 123 -31 123 -82
c0 -56 -47 -96 -164 -111l-6 52c75 4 106 25 106 54c0 31 -36 47 -120 34l-8 42z" />
    <glyph glyph-name="eacute" unicode="&#xe9;" horiz-adv-x="480" 
d="M124 215c3 -90 63 -154 151 -154c48 0 100 13 137 38l15 -76c-41 -25 -95 -38 -154 -38c-138 0 -232 99 -232 239c0 148 98 249 226 249c112 0 175 -70 175 -179c0 -25 -3 -53 -10 -73h-48c-29 0 -67 0 -106 -1c-45 -1 -97 -1 -154 -1v-4zM363 281v7
c0 68 -32 113 -104 113c-79 0 -123 -62 -131 -122zM269 520h-60l106 181h100z" />
    <glyph glyph-name="ecircumflex" unicode="&#xea;" horiz-adv-x="480" 
d="M124 215c3 -90 63 -154 151 -154c48 0 100 13 137 38l15 -76c-41 -25 -95 -38 -154 -38c-138 0 -232 99 -232 239c0 148 98 249 226 249c112 0 175 -70 175 -179c0 -25 -3 -53 -10 -73h-48c-29 0 -67 0 -106 -1c-45 -1 -97 -1 -154 -1v-4zM363 281v7
c0 68 -32 113 -104 113c-79 0 -123 -62 -131 -122zM335 520l-98 127h-1l-99 -127h-60l115 187h88l115 -187h-60z" />
    <glyph glyph-name="edieresis" unicode="&#xeb;" horiz-adv-x="480" 
d="M124 215c3 -90 63 -154 151 -154c48 0 100 13 137 38l15 -76c-41 -25 -95 -38 -154 -38c-138 0 -232 99 -232 239c0 148 98 249 226 249c112 0 175 -70 175 -179c0 -25 -3 -53 -10 -73h-48c-29 0 -67 0 -106 -1c-45 -1 -97 -1 -154 -1v-4zM363 281v7
c0 68 -32 113 -104 113c-79 0 -123 -62 -131 -122zM403 587c0 -35 -24 -63 -60 -63s-60 28 -60 63c0 33 24 62 60 62s60 -29 60 -62zM199 587c0 -35 -25 -63 -61 -63c-35 0 -60 28 -60 63c0 33 25 62 60 62c36 0 61 -29 61 -62z" />
    <glyph glyph-name="egrave" unicode="&#xe8;" horiz-adv-x="480" 
d="M124 215c3 -90 63 -154 151 -154c48 0 100 13 137 38l15 -76c-41 -25 -95 -38 -154 -38c-138 0 -232 99 -232 239c0 148 98 249 226 249c112 0 175 -70 175 -179c0 -25 -3 -53 -10 -73h-48c-29 0 -67 0 -106 -1c-45 -1 -97 -1 -154 -1v-4zM363 281v7
c0 68 -32 113 -104 113c-79 0 -123 -62 -131 -122zM233 520l-146 181h100l106 -181h-60z" />
    <glyph glyph-name="iacute" unicode="&#xed;" horiz-adv-x="224" 
d="M74 0v451l82 13v-464h-82zM138 520h-60l106 181h100z" />
    <glyph glyph-name="icircumflex" unicode="&#xee;" horiz-adv-x="224" 
d="M74 0v451l82 13v-464h-82zM214 520l-98 127h-1l-99 -127h-60l115 187h88l115 -187h-60z" />
    <glyph glyph-name="idieresis" unicode="&#xef;" horiz-adv-x="224" 
d="M74 0v451l82 13v-464h-82zM277 587c0 -35 -24 -63 -60 -63s-60 28 -60 63c0 33 24 62 60 62s60 -29 60 -62zM73 587c0 -35 -25 -63 -61 -63c-35 0 -60 28 -60 63c0 33 25 62 60 62c36 0 61 -29 61 -62z" />
    <glyph glyph-name="igrave" unicode="&#xec;" horiz-adv-x="224" 
d="M74 0v451l82 13v-464h-82zM92 520l-146 181h100l106 -181h-60z" />
    <glyph glyph-name="ntilde" unicode="&#xf1;" horiz-adv-x="517" 
d="M368 0v288c0 80 -30 106 -95 106c-48 0 -93 -25 -120 -50v-344h-82v460l82 13v-69c43 43 96 69 149 69c93 0 148 -58 148 -158v-315h-82zM432 649c-9 -85 -36 -126 -97 -126s-116 69 -153 69c-19 0 -31 -15 -38 -62h-55c9 87 36 127 97 127s116 -70 153 -70
c19 0 30 15 37 62h56z" />
    <glyph glyph-name="oacute" unicode="&#xf3;" horiz-adv-x="528" 
d="M487 229c0 -147 -96 -244 -225 -244c-130 0 -221 96 -221 244c0 147 95 245 226 245s220 -97 220 -245zM406 228c0 99 -52 172 -143 172c-92 0 -141 -70 -141 -170c0 -98 52 -171 143 -171c92 0 141 70 141 169zM270 520h-60l106 181h100z" />
    <glyph glyph-name="ocircumflex" unicode="&#xf4;" horiz-adv-x="528" 
d="M487 229c0 -147 -96 -244 -225 -244c-130 0 -221 96 -221 244c0 147 95 245 226 245s220 -97 220 -245zM406 228c0 99 -52 172 -143 172c-92 0 -141 -70 -141 -170c0 -98 52 -171 143 -171c92 0 141 70 141 169zM366 520l-98 127h-1l-99 -127h-60l115 187h88l115 -187
h-60z" />
    <glyph glyph-name="odieresis" unicode="&#xf6;" horiz-adv-x="528" 
d="M487 229c0 -147 -96 -244 -225 -244c-130 0 -221 96 -221 244c0 147 95 245 226 245s220 -97 220 -245zM406 228c0 99 -52 172 -143 172c-92 0 -141 -70 -141 -170c0 -98 52 -171 143 -171c92 0 141 70 141 169zM429 587c0 -35 -24 -63 -60 -63s-60 28 -60 63
c0 33 24 62 60 62s60 -29 60 -62zM225 587c0 -35 -25 -63 -61 -63c-35 0 -60 28 -60 63c0 33 25 62 60 62c36 0 61 -29 61 -62z" />
    <glyph glyph-name="ograve" unicode="&#xf2;" horiz-adv-x="528" 
d="M487 229c0 -147 -96 -244 -225 -244c-130 0 -221 96 -221 244c0 147 95 245 226 245s220 -97 220 -245zM406 228c0 99 -52 172 -143 172c-92 0 -141 -70 -141 -170c0 -98 52 -171 143 -171c92 0 141 70 141 169zM264 520l-146 181h100l106 -181h-60z" />
    <glyph glyph-name="otilde" unicode="&#xf5;" horiz-adv-x="528" 
d="M487 229c0 -147 -96 -244 -225 -244c-130 0 -221 96 -221 244c0 147 95 245 226 245s220 -97 220 -245zM406 228c0 99 -52 172 -143 172c-92 0 -141 -70 -141 -170c0 -98 52 -171 143 -171c92 0 141 70 141 169zM438 649c-9 -85 -36 -126 -97 -126s-116 69 -153 69
c-19 0 -31 -15 -38 -62h-55c9 87 36 127 97 127s116 -70 153 -70c19 0 30 15 37 62h56z" />
    <glyph glyph-name="scaron" unicode="&#x161;" horiz-adv-x="401" 
d="M364 130c0 -87 -73 -146 -173 -146c-56 0 -117 16 -160 43l21 75c39 -27 94 -43 141 -43c52 0 91 24 91 65c0 46 -55 60 -108 76c-65 19 -136 50 -136 134s72 139 164 139c53 0 105 -13 148 -34l-21 -75c-39 21 -92 34 -131 34c-49 0 -81 -20 -81 -57
c0 -45 49 -58 106 -74c67 -19 139 -49 139 -137zM247 520h-88l-115 187h60l98 -127h1l99 127h60z" />
    <glyph glyph-name="uacute" unicode="&#xfa;" horiz-adv-x="517" 
d="M149 458v-288c0 -80 30 -106 90 -106c53 0 98 25 125 50v344h82v-460l-82 -13v67c-43 -43 -95 -67 -154 -67c-88 0 -143 58 -143 158v315h82zM274 520h-60l106 181h100z" />
    <glyph glyph-name="ucircumflex" unicode="&#xfb;" horiz-adv-x="517" 
d="M149 458v-288c0 -80 30 -106 90 -106c53 0 98 25 125 50v344h82v-460l-82 -13v67c-43 -43 -95 -67 -154 -67c-88 0 -143 58 -143 158v315h82zM360 520l-98 127h-1l-99 -127h-60l115 187h88l115 -187h-60z" />
    <glyph glyph-name="udieresis" unicode="&#xfc;" horiz-adv-x="517" 
d="M149 458v-288c0 -80 30 -106 90 -106c53 0 98 25 125 50v344h82v-460l-82 -13v67c-43 -43 -95 -67 -154 -67c-88 0 -143 58 -143 158v315h82zM418 587c0 -35 -24 -63 -60 -63s-60 28 -60 63c0 33 24 62 60 62s60 -29 60 -62zM214 587c0 -35 -25 -63 -61 -63
c-35 0 -60 28 -60 63c0 33 25 62 60 62c36 0 61 -29 61 -62z" />
    <glyph glyph-name="ugrave" unicode="&#xf9;" horiz-adv-x="517" 
d="M149 458v-288c0 -80 30 -106 90 -106c53 0 98 25 125 50v344h82v-460l-82 -13v67c-43 -43 -95 -67 -154 -67c-88 0 -143 58 -143 158v315h82zM248 520l-146 181h100l106 -181h-60z" />
    <glyph glyph-name="yacute" unicode="&#xfd;" horiz-adv-x="441" 
d="M256 -5l-31 -82c-42 -117 -91 -151 -161 -151c-35 0 -66 9 -97 24l24 76c24 -12 50 -22 73 -22c35 0 56 19 88 99l28 71l-178 448h88l133 -356l129 356h87zM246 520h-60l106 181h100z" />
    <glyph glyph-name="ydieresis" unicode="&#xff;" horiz-adv-x="441" 
d="M256 -5l-31 -82c-42 -117 -91 -151 -161 -151c-35 0 -66 9 -97 24l24 76c24 -12 50 -22 73 -22c35 0 56 19 88 99l28 71l-178 448h88l133 -356l129 356h87zM385 587c0 -35 -24 -63 -60 -63s-60 28 -60 63c0 33 24 62 60 62s60 -29 60 -62zM181 587c0 -35 -25 -63 -61 -63
c-35 0 -60 28 -60 63c0 33 25 62 60 62c36 0 61 -29 61 -62z" />
    <glyph glyph-name="zcaron" unicode="&#x17e;" horiz-adv-x="410" 
d="M21 0v70l266 313h-257v75h356v-68l-266 -315h266v-75h-365zM242 520h-88l-115 187h60l98 -127h1l99 127h60z" />
    <glyph glyph-name="ff" unicode="&#xfb00;" horiz-adv-x="642" 
d="M170 0h-82v383l-80 6l4 52l75 22l1 48c3 128 60 175 151 175c35 0 69 -11 92 -22c0 -2 -20 -77 -20 -75c-21 9 -50 20 -73 20c-47 0 -68 -28 -68 -97v-54h243l1 63c3 128 60 175 151 175c35 0 69 -11 92 -22c0 -2 -20 -77 -20 -75c-21 9 -50 20 -73 20
c-47 0 -68 -28 -68 -97v-64h145l-3 -74h-142v-384h-82v384h-244v-384z" />
    <glyph glyph-name="ffi" unicode="&#xfb03;" horiz-adv-x="863" 
d="M170 0h-82v383l-80 6l4 52l75 22l1 48c3 128 60 175 151 175c35 0 69 -11 92 -22c0 -2 -20 -77 -20 -75c-21 9 -50 20 -73 20c-47 0 -68 -28 -68 -97v-54h243l1 63c3 128 60 175 151 175c35 0 69 -11 92 -22c0 -2 -20 -77 -20 -75c-21 9 -50 20 -73 20
c-47 0 -68 -28 -68 -97v-64h217l82 15v-473h-82v384h-217v-384h-82v384h-244v-384z" />
    <glyph glyph-name="ffl" unicode="&#xfb04;" horiz-adv-x="866" 
d="M713 0v674l82 13v-687h-82zM170 0h-82v383l-80 6l4 52l75 22l1 48c3 128 60 175 151 175c35 0 69 -11 92 -22c0 -2 -20 -77 -20 -75c-21 9 -50 20 -73 20c-47 0 -68 -28 -68 -97v-54h243l1 63c3 128 60 175 151 175c35 0 69 -11 92 -22c0 -2 -20 -77 -20 -75
c-21 9 -50 20 -73 20c-47 0 -68 -28 -68 -97v-64h145l-3 -74h-142v-384h-82v384h-244v-384z" />
    <glyph glyph-name=".null" horiz-adv-x="0" 
 />
    <glyph glyph-name="CR" horiz-adv-x="154" 
 />
    <glyph glyph-name="nbspace" unicode="&#xa0;" horiz-adv-x="154" 
 />
    <glyph glyph-name="apple" unicode="&#xf8ff;" horiz-adv-x="758" 
d="M583 148l69 -189l-189 69l-85 -181l-84 180l-187 -68l68 187l-181 86l181 83l-68 189l187 -69l86 181l83 -181l189 69l-69 -189l180 -82zM531 294l50 139l-139 -50l-63 133l-63 -133l-139 50l51 -139l-134 -63l134 -63l-51 -138l139 51l62 -135l64 135l139 -51l-50 140
l132 62z" />
    <glyph glyph-name="Euro" unicode="&#x20ac;" horiz-adv-x="502" 
d="M33 369l-3 55h83c29 153 119 216 227 216c61 0 112 -13 153 -38l-20 -73c-39 25 -84 37 -133 37c-76 0 -124 -45 -144 -142h227l-3 -55h-231c-1 -16 -2 -33 -2 -52c0 -21 1 -41 3 -59h200l3 -55h-195c23 -100 73 -144 141 -144c53 0 99 12 137 37l14 -74
c-41 -25 -92 -37 -153 -37c-114 0 -202 58 -226 218h-81l3 55h72c-1 16 -2 32 -2 51c0 21 1 41 2 60h-72z" />
    </font>
</defs>
</svg>
